<svg width="244" height="31" viewBox="0 0 244 31" fill="none" xmlns="http://www.w3.org/2000/svg">
<path d="M71.832 6.9375H74.9961L79.0977 19.1367L83.1875 6.9375H86.3516L80.375 24H77.8086L71.832 6.9375ZM70.0039 6.9375H73.2266L73.8242 19.582V24H70.0039V6.9375ZM84.957 6.9375H88.1914V24H84.3594V19.582L84.957 6.9375ZM94.6602 22.5352L97.9766 11.3203H101.914L96.8164 25.8984C96.707 26.2188 96.5586 26.5625 96.3711 26.9297C96.1914 27.2969 95.9453 27.6484 95.6328 27.9844C95.3281 28.3203 94.9375 28.5938 94.4609 28.8047C93.9844 29.0156 93.3984 29.1211 92.7031 29.1211C92.3516 29.1211 92.0781 29.1016 91.8828 29.0625C91.6953 29.0312 91.4453 28.9766 91.1328 28.8984L91.1211 26.2383C91.2227 26.2383 91.3125 26.2383 91.3906 26.2383C91.4766 26.2461 91.5625 26.25 91.6484 26.25C92.0859 26.25 92.4375 26.2031 92.7031 26.1094C92.9766 26.0156 93.1875 25.875 93.3359 25.6875C93.4922 25.5078 93.6172 25.2773 93.7109 24.9961L94.6602 22.5352ZM93.5469 11.3203L96.1719 20.3438L96.6172 24.2227L94.1445 24.3516L89.6094 11.3203H93.5469Z" fill="#564D4A"/>
<path d="M113.293 21.8672L116.691 6.9375H118.648L119.422 8.78906L115.801 24H113.656L113.293 21.8672ZM111.969 6.9375L114.816 21.9375L114.324 24H111.887L108.184 6.9375H111.969ZM121.848 21.8555L124.66 6.9375H128.434L124.73 24H122.316L121.848 21.8555ZM119.926 6.9375L123.371 21.9492L122.973 24H120.84L117.16 8.77734L117.969 6.9375H119.926ZM136.32 20.9766V15.5391C136.32 15.1562 136.262 14.8281 136.145 14.5547C136.027 14.2812 135.844 14.0664 135.594 13.9102C135.344 13.7539 135.02 13.6758 134.621 13.6758C134.285 13.6758 133.992 13.7344 133.742 13.8516C133.5 13.9688 133.312 14.1367 133.18 14.3555C133.055 14.5742 132.992 14.8438 132.992 15.1641H129.336C129.336 14.5938 129.465 14.0625 129.723 13.5703C129.98 13.0781 130.348 12.6445 130.824 12.2695C131.309 11.8945 131.887 11.6055 132.559 11.4023C133.23 11.1914 133.984 11.0859 134.82 11.0859C135.812 11.0859 136.695 11.2539 137.469 11.5898C138.25 11.918 138.867 12.4141 139.32 13.0781C139.773 13.7344 140 14.5625 140 15.5625V20.8711C140 21.6367 140.043 22.2383 140.129 22.6758C140.223 23.1055 140.355 23.4805 140.527 23.8008V24H136.836C136.664 23.6328 136.535 23.1797 136.449 22.6406C136.363 22.0938 136.32 21.5391 136.32 20.9766ZM136.777 16.2656L136.801 18.2812H134.984C134.578 18.2812 134.227 18.332 133.93 18.4336C133.641 18.5352 133.406 18.6758 133.227 18.8555C133.047 19.0273 132.914 19.2305 132.828 19.4648C132.75 19.6914 132.711 19.9414 132.711 20.2148C132.711 20.4727 132.773 20.707 132.898 20.918C133.023 21.1211 133.195 21.2812 133.414 21.3984C133.633 21.5156 133.887 21.5742 134.176 21.5742C134.652 21.5742 135.059 21.4805 135.395 21.293C135.738 21.1055 136.004 20.8789 136.191 20.6133C136.379 20.3398 136.473 20.0859 136.473 19.8516L137.352 21.375C137.211 21.6875 137.039 22.0117 136.836 22.3477C136.633 22.6758 136.375 22.9844 136.062 23.2734C135.75 23.5547 135.371 23.7852 134.926 23.9648C134.488 24.1445 133.961 24.2344 133.344 24.2344C132.547 24.2344 131.824 24.0742 131.176 23.7539C130.527 23.4258 130.008 22.9766 129.617 22.4062C129.234 21.8359 129.043 21.1797 129.043 20.4375C129.043 19.7734 129.164 19.1836 129.406 18.668C129.648 18.1523 130.012 17.7148 130.496 17.3555C130.988 16.9961 131.605 16.7266 132.348 16.5469C133.09 16.3594 133.957 16.2656 134.949 16.2656H136.777ZM146.258 6V24H142.59V6H146.258ZM152.75 6V24H149.082V6H152.75ZM161.363 24.2344C160.355 24.2344 159.453 24.0742 158.656 23.7539C157.859 23.4336 157.184 22.9922 156.629 22.4297C156.082 21.8594 155.664 21.2031 155.375 20.4609C155.086 19.7188 154.941 18.9258 154.941 18.082V17.6367C154.941 16.6914 155.074 15.8203 155.34 15.0234C155.605 14.2266 155.992 13.5352 156.5 12.9492C157.016 12.3555 157.648 11.8984 158.398 11.5781C159.148 11.25 160.004 11.0859 160.965 11.0859C161.863 11.0859 162.664 11.2344 163.367 11.5312C164.07 11.8203 164.664 12.2383 165.148 12.7852C165.633 13.3242 166 13.9766 166.25 14.7422C166.508 15.5 166.637 16.3516 166.637 17.2969V18.7969H156.418V16.4414H163.051V16.1602C163.051 15.7148 162.969 15.3242 162.805 14.9883C162.648 14.6523 162.414 14.3945 162.102 14.2148C161.797 14.0273 161.41 13.9336 160.941 13.9336C160.496 13.9336 160.125 14.0273 159.828 14.2148C159.531 14.4023 159.293 14.668 159.113 15.0117C158.941 15.3477 158.816 15.7422 158.738 16.1953C158.66 16.6406 158.621 17.1211 158.621 17.6367V18.082C158.621 18.5742 158.688 19.0234 158.82 19.4297C158.953 19.8359 159.148 20.1836 159.406 20.4727C159.664 20.7617 159.977 20.9883 160.344 21.1523C160.711 21.3164 161.129 21.3984 161.598 21.3984C162.176 21.3984 162.727 21.2891 163.25 21.0703C163.773 20.8438 164.227 20.4922 164.609 20.0156L166.32 21.9727C166.062 22.3477 165.699 22.7109 165.23 23.0625C164.77 23.4062 164.215 23.6875 163.566 23.9062C162.918 24.125 162.184 24.2344 161.363 24.2344ZM174.863 11.3203V13.8867H167.34V11.3203H174.863ZM169.062 8.17969H172.73V20.0273C172.73 20.3789 172.773 20.6484 172.859 20.8359C172.945 21.0234 173.086 21.1562 173.281 21.2344C173.477 21.3047 173.727 21.3398 174.031 21.3398C174.25 21.3398 174.438 21.332 174.594 21.3164C174.75 21.3008 174.895 21.2812 175.027 21.2578V23.9062C174.715 24.0078 174.383 24.0859 174.031 24.1406C173.68 24.2031 173.297 24.2344 172.883 24.2344C172.094 24.2344 171.41 24.1055 170.832 23.8477C170.262 23.5898 169.824 23.1836 169.52 22.6289C169.215 22.0664 169.062 21.3359 169.062 20.4375V8.17969Z" fill="#F5F5F5"/>
<path d="M61.6 1H26.4C23.98 1 22 2.6875 22 4.75V27.25C22 29.3125 23.98 31 26.4 31H61.6C64.02 31 66 29.3125 66 27.25V4.75C66 2.6875 64.02 1 61.6 1ZM26.4 16H35.2V19.75H26.4V16ZM48.4 27.25H26.4V23.5H48.4V27.25ZM61.6 27.25H52.8V23.5H61.6V27.25ZM61.6 19.75H39.6V16H61.6V19.75Z" fill="#F5F5F5"/>
</svg>
