<svg width="315" height="55" viewBox="0 0 315 55" fill="none" xmlns="http://www.w3.org/2000/svg">
<path d="M96.8447 10.2969H102.909L110.771 33.6787L118.609 10.2969H124.674L113.219 43H108.3L96.8447 10.2969ZM93.3408 10.2969H99.5176L100.663 34.5322V43H93.3408V10.2969ZM122.001 10.2969H128.2V43H120.855V34.5322L122.001 10.2969ZM140.599 40.1924L146.955 18.6973H154.502L144.731 46.6387C144.522 47.2526 144.237 47.9115 143.878 48.6152C143.534 49.319 143.062 49.9928 142.463 50.6367C141.879 51.2806 141.13 51.8047 140.217 52.209C139.303 52.6133 138.18 52.8154 136.848 52.8154C136.174 52.8154 135.65 52.778 135.275 52.7031C134.916 52.6432 134.437 52.5384 133.838 52.3887L133.815 47.29C134.01 47.29 134.182 47.29 134.332 47.29C134.497 47.305 134.661 47.3125 134.826 47.3125C135.665 47.3125 136.339 47.2227 136.848 47.043C137.372 46.8633 137.776 46.5938 138.061 46.2344C138.36 45.89 138.6 45.4482 138.779 44.9092L140.599 40.1924ZM138.465 18.6973L143.496 35.9922L144.35 43.4268L139.61 43.6738L130.918 18.6973H138.465Z" fill="#564D4A"/>
<path d="M176.312 38.9121L182.825 10.2969H186.576L188.059 13.8457L181.118 43H177.008L176.312 38.9121ZM173.773 10.2969L179.231 39.0469L178.288 43H173.616L166.519 10.2969H173.773ZM192.708 38.8896L198.099 10.2969H205.331L198.233 43H193.606L192.708 38.8896ZM189.024 10.2969L195.628 39.0693L194.864 43H190.776L183.724 13.8232L185.273 10.2969H189.024ZM220.447 37.2051V26.7832C220.447 26.0495 220.335 25.4206 220.11 24.8965C219.886 24.3724 219.534 23.9606 219.055 23.6611C218.576 23.3617 217.954 23.2119 217.19 23.2119C216.547 23.2119 215.985 23.3242 215.506 23.5488C215.042 23.7734 214.682 24.0954 214.428 24.5146C214.188 24.9339 214.068 25.4505 214.068 26.0645H207.061C207.061 24.9714 207.308 23.9531 207.802 23.0098C208.296 22.0664 209 21.2354 209.913 20.5166C210.841 19.7979 211.95 19.2438 213.237 18.8545C214.525 18.4502 215.97 18.248 217.572 18.248C219.474 18.248 221.166 18.57 222.648 19.2139C224.146 19.8428 225.329 20.7936 226.197 22.0664C227.066 23.3242 227.5 24.9115 227.5 26.8281V37.0029C227.5 38.4704 227.582 39.6234 227.747 40.4619C227.927 41.2855 228.181 42.0042 228.511 42.6182V43H221.436C221.106 42.2962 220.859 41.4277 220.694 40.3945C220.53 39.3464 220.447 38.2832 220.447 37.2051ZM221.323 28.1758L221.368 32.0391H217.887C217.108 32.0391 216.434 32.1364 215.865 32.3311C215.311 32.5257 214.862 32.7952 214.518 33.1396C214.173 33.4691 213.919 33.8584 213.754 34.3076C213.604 34.7419 213.529 35.221 213.529 35.7451C213.529 36.2393 213.649 36.6885 213.889 37.0928C214.128 37.4821 214.458 37.7891 214.877 38.0137C215.296 38.2383 215.783 38.3506 216.337 38.3506C217.25 38.3506 218.029 38.1709 218.673 37.8115C219.332 37.4521 219.841 37.0179 220.2 36.5088C220.56 35.9847 220.739 35.498 220.739 35.0488L222.424 37.9688C222.154 38.5677 221.825 39.1891 221.436 39.833C221.046 40.4619 220.552 41.0534 219.953 41.6074C219.354 42.1465 218.628 42.5882 217.774 42.9326C216.936 43.277 215.925 43.4492 214.742 43.4492C213.215 43.4492 211.83 43.1423 210.587 42.5283C209.344 41.8994 208.348 41.0384 207.6 39.9453C206.866 38.8522 206.499 37.5944 206.499 36.1719C206.499 34.8991 206.731 33.7686 207.195 32.7803C207.66 31.792 208.356 30.9535 209.284 30.2646C210.228 29.5758 211.41 29.0592 212.833 28.7148C214.256 28.3555 215.918 28.1758 217.819 28.1758H221.323ZM239.494 8.5V43H232.464V8.5H239.494ZM251.938 8.5V43H244.907V8.5H251.938ZM268.446 43.4492C266.515 43.4492 264.785 43.1423 263.258 42.5283C261.73 41.9144 260.435 41.0684 259.372 39.9902C258.324 38.8971 257.523 37.6393 256.969 36.2168C256.415 34.7943 256.138 33.2744 256.138 31.6572V30.8037C256.138 28.9919 256.392 27.3223 256.901 25.7949C257.41 24.2676 258.152 22.9424 259.125 21.8193C260.113 20.6813 261.326 19.8053 262.764 19.1914C264.201 18.5625 265.841 18.248 267.683 18.248C269.405 18.248 270.939 18.5326 272.287 19.1016C273.635 19.6556 274.773 20.4567 275.701 21.5049C276.63 22.5381 277.333 23.7884 277.812 25.2559C278.307 26.7083 278.554 28.3405 278.554 30.1523V33.0273H258.968V28.5127H271.681V27.9736C271.681 27.1201 271.523 26.3714 271.209 25.7275C270.91 25.0837 270.46 24.5895 269.861 24.2451C269.277 23.8857 268.536 23.7061 267.638 23.7061C266.784 23.7061 266.073 23.8857 265.504 24.2451C264.935 24.6045 264.478 25.1136 264.134 25.7725C263.804 26.4163 263.565 27.1725 263.415 28.041C263.265 28.8945 263.19 29.8154 263.19 30.8037V31.6572C263.19 32.6006 263.318 33.4616 263.572 34.2402C263.827 35.0189 264.201 35.6852 264.695 36.2393C265.189 36.7933 265.788 37.2275 266.492 37.542C267.196 37.8564 267.997 38.0137 268.896 38.0137C270.004 38.0137 271.059 37.804 272.062 37.3848C273.066 36.9505 273.934 36.2767 274.668 35.3633L277.947 39.1143C277.453 39.833 276.757 40.5293 275.858 41.2031C274.975 41.862 273.912 42.401 272.669 42.8203C271.426 43.2396 270.019 43.4492 268.446 43.4492ZM294.321 18.6973V23.6162H279.901V18.6973H294.321ZM283.203 12.6777H290.233V35.3857C290.233 36.0596 290.316 36.5762 290.48 36.9355C290.645 37.2949 290.915 37.5495 291.289 37.6992C291.663 37.834 292.143 37.9014 292.727 37.9014C293.146 37.9014 293.505 37.8864 293.805 37.8564C294.104 37.8265 294.381 37.7891 294.636 37.7441V42.8203C294.037 43.015 293.4 43.1647 292.727 43.2695C292.053 43.3893 291.319 43.4492 290.525 43.4492C289.013 43.4492 287.703 43.2021 286.595 42.708C285.502 42.2139 284.663 41.4352 284.079 40.3721C283.495 39.2939 283.203 37.8939 283.203 36.1719V12.6777Z" fill="#99C24D"/>
<path d="M72 0H8C3.6 0 0 3.09375 0 6.875V48.125C0 51.9062 3.6 55 8 55H72C76.4 55 80 51.9062 80 48.125V6.875C80 3.09375 76.4 0 72 0ZM8 27.5H24V34.375H8V27.5ZM48 48.125H8V41.25H48V48.125ZM72 48.125H56V41.25H72V48.125ZM72 34.375H32V27.5H72V34.375Z" fill="#99C24D"/>
</svg>
